<svg width="130" height="40" viewBox="0 0 130 40" fill="none" xmlns="http://www.w3.org/2000/svg">
<g clip-path="url(#clip0)">
<path d="M37.2663 28.3497C37.0624 27.8622 36.8713 27.3497 36.6673 26.9122L35.7242 24.8247L35.686 24.7872C32.882 18.7872 29.8869 12.6872 26.7134 6.68719L26.586 6.43719C26.2673 5.84969 25.9487 5.19969 25.6173 4.59969C25.2095 3.88719 24.8144 3.12469 24.1644 2.39969C23.5308 1.6411 22.7334 1.02992 21.8298 0.610255C20.9261 0.190588 19.9387 -0.0270996 18.9389 -0.0270996C17.9391 -0.0270996 16.9517 0.190588 16.048 0.610255C15.1444 1.02992 14.347 1.6411 13.7134 2.39969C13.1144 3.12469 12.6683 3.88719 12.2605 4.59969C11.9418 5.24969 11.6232 5.88719 11.2918 6.47469L11.1644 6.72469C8.04184 12.7247 4.99576 18.8247 2.19184 24.8247L2.11536 24.8997C1.83497 25.5497 1.5036 26.2247 1.18497 26.9497C0.981051 27.3872 0.777129 27.8622 0.573208 28.3872C0.0226609 29.7619 -0.153146 31.2536 0.0631134 32.7153C0.279373 34.177 0.880234 35.5581 1.80648 36.7227C2.73273 37.8873 3.95239 38.795 5.34526 39.3565C6.73813 39.918 8.25614 40.1138 9.74968 39.9247C11.1816 39.7398 12.5603 39.2721 13.8026 38.5497C15.4595 37.6372 17.0526 36.3122 18.8369 34.3997C20.6212 36.3122 22.2526 37.6372 23.8713 38.5622C25.4278 39.4582 27.1905 39.9528 28.9948 39.9997C31.0841 40.0082 33.1061 39.275 34.6873 37.9356C36.2686 36.5961 37.3023 34.7408 37.5977 32.7122C37.9391 31.2544 37.8236 29.7295 37.2663 28.3372V28.3497ZM18.9644 30.4247C16.7722 27.6747 15.3448 25.1497 14.8605 22.9872C14.6598 22.1859 14.6166 21.3544 14.733 20.5372C14.8222 19.8997 15.0644 19.3372 15.3958 18.8622C16.1605 17.7747 17.4987 17.0997 18.9644 17.0997C19.6604 17.0788 20.3509 17.2278 20.9737 17.5333C21.5966 17.8387 22.1324 18.291 22.533 18.8497C22.8644 19.3497 23.1065 19.8997 23.183 20.5372C23.3105 21.2622 23.2595 22.0997 23.0556 22.9872C22.5713 25.1122 21.1438 27.6622 18.9644 30.4247ZM35.2016 32.2747C35.0568 33.3046 34.6394 34.2794 33.9909 35.1018C33.3424 35.9242 32.4855 36.5657 31.5056 36.9622C30.5369 37.3622 29.4663 37.4747 28.4212 37.3622C27.4016 37.2372 26.382 36.9122 25.3369 36.3122C23.6017 35.2603 22.0414 33.9534 20.7105 32.4372C23.3869 29.1872 25.0056 26.2247 25.6173 23.5872C25.9105 22.3372 25.9487 21.2122 25.8213 20.1747C25.6621 19.1913 25.2882 18.2532 24.7252 17.4247C24.0823 16.5263 23.2242 15.7965 22.2264 15.2995C21.2286 14.8026 20.1215 14.5537 19.0026 14.5747C16.6448 14.5747 14.5418 15.6497 13.2673 17.4122C12.6936 18.2386 12.3228 19.1842 12.184 20.1747C12.0183 21.2247 12.0565 22.3872 12.3879 23.5872C12.9997 26.2247 14.6565 29.2247 17.2948 32.4622C15.9865 34.0074 14.4225 35.3258 12.6683 36.3622C11.6105 36.9622 10.6036 37.2747 9.58399 37.3997C7.99835 37.5989 6.39663 37.1762 5.12698 36.2236C3.85733 35.2709 3.02237 33.8653 2.8036 32.3122C2.67615 31.3122 2.76536 30.3122 3.17321 29.1872C3.30066 28.7872 3.49184 28.3872 3.69576 27.9122C3.97615 27.2622 4.30752 26.5872 4.62615 25.9122L4.67713 25.8247C7.43007 19.8622 10.4379 13.7747 13.5605 7.81219L13.6879 7.56219C14.0065 6.96219 14.3252 6.32469 14.6565 5.72469C14.9879 5.08719 15.3448 4.47469 15.8036 3.97469C16.2008 3.50971 16.697 3.13578 17.2574 2.87921C17.8178 2.62264 18.4288 2.48967 19.0472 2.48967C19.6657 2.48967 20.2766 2.62264 20.837 2.87921C21.3975 3.13578 21.8937 3.50971 22.2909 3.97469C22.7369 4.47469 23.1065 5.08719 23.4379 5.72469C23.7565 6.32469 24.0752 6.97469 24.4065 7.56219L24.534 7.81219C27.6438 13.7747 30.6516 19.8622 33.4556 25.8247L33.4938 25.8622C33.8252 26.5122 34.1056 27.2372 34.4242 27.8622C34.6281 28.3497 34.832 28.7372 34.9595 29.1497C35.2016 30.2747 35.3291 31.2747 35.2016 32.2747ZM52.9428 30.1497C51.9824 30.1635 51.0312 29.965 50.1597 29.569C49.2882 29.173 48.5188 28.5896 47.9085 27.8622C46.5372 26.3121 45.8094 24.3135 45.8693 22.2622C45.8483 20.1662 46.5996 18.1332 47.985 16.5372C48.6258 15.8005 49.4235 15.2105 50.3219 14.8088C51.2203 14.4071 52.1976 14.2034 53.185 14.2122C54.114 14.1872 55.0342 14.3944 55.8592 14.8143C56.6841 15.2341 57.3866 15.8528 57.9007 16.6122L58.0281 14.6497H61.7497V29.7497H58.0154L57.8879 27.5497C57.3579 28.3605 56.6254 29.025 55.7599 29.4801C54.8944 29.9351 53.9247 30.1656 52.9428 30.1497ZM53.9114 26.5497C54.6507 26.5497 55.3007 26.3497 55.9124 25.9872C56.4732 25.5872 56.932 25.0622 57.2889 24.4247C57.6075 23.7872 57.7732 23.0247 57.7732 22.1747C57.8229 21.4364 57.6764 20.6982 57.348 20.0321C57.0196 19.366 56.5205 18.7949 55.8997 18.3747C55.3031 18.0101 54.6143 17.8169 53.9114 17.8169C53.2086 17.8169 52.5198 18.0101 51.9232 18.3747C51.3624 18.7747 50.9036 19.2997 50.5467 19.9372C50.2097 20.6402 50.0439 21.4105 50.0624 22.1872C50.0127 22.9254 50.1593 23.6637 50.4877 24.3298C50.8161 24.9959 51.3151 25.5669 51.936 25.9872C52.535 26.3497 53.185 26.5497 53.9114 26.5497ZM68.1222 10.5747C68.1222 11.0122 68.0458 11.4122 67.8418 11.7372C67.6379 12.0497 67.3575 12.3372 66.9879 12.5372C66.6183 12.7372 66.2232 12.8122 65.8154 12.8122C65.4075 12.8122 64.9997 12.7372 64.6301 12.5372C64.2805 12.3463 63.9866 12.0709 63.7762 11.7372C63.5788 11.3811 63.482 10.9798 63.4958 10.5747C63.4958 10.1247 63.585 9.72469 63.7762 9.41219C63.9801 9.03719 64.2732 8.81219 64.6301 8.61219C64.9997 8.41219 65.3948 8.32469 65.8154 8.32469C66.2211 8.31552 66.6222 8.40975 66.9797 8.59818C67.3371 8.78661 67.6386 9.06278 67.8546 9.39969C68.0401 9.76412 68.1319 10.1675 68.1222 10.5747ZM63.7889 29.6997V14.6247H67.8418V29.7247H63.7762L63.7889 29.6997ZM78.6752 18.5747V18.6247C78.484 18.5372 78.2291 18.4997 78.0379 18.4622C77.783 18.4122 77.5791 18.4122 77.3369 18.4122C76.2026 18.4122 75.3487 18.7372 74.7879 19.4122C74.1762 20.0997 73.8958 21.0622 73.8958 22.2997V29.7122H69.8301V14.6122H73.5644L73.6918 16.8997C74.0997 16.0997 74.584 15.4997 75.2722 15.0497C75.9568 14.6125 76.7627 14.3941 77.5791 14.4247C77.8722 14.4247 78.1526 14.4497 78.3948 14.4997C78.5222 14.5372 78.5987 14.5372 78.6752 14.5747V18.5747ZM80.3065 29.6997V8.42469H84.3595V16.5497C84.933 15.8247 85.583 15.2622 86.3987 14.8247C87.69 14.2037 89.157 14.0276 90.5629 14.3247C91.9688 14.6218 93.2317 15.3748 94.1477 16.4622C95.522 18.0154 96.25 20.0191 96.1869 22.0747C96.2079 24.1707 95.4566 26.2036 94.0713 27.7997C93.4304 28.5364 92.6327 29.1264 91.7343 29.5281C90.8359 29.9298 89.8586 30.1334 88.8713 30.1247C87.9422 30.1496 87.022 29.9424 86.1971 29.5226C85.3721 29.1028 84.6696 28.4841 84.1556 27.7247L84.0281 29.6872L80.3065 29.7247V29.6997ZM88.1448 26.5497C88.8713 26.5497 89.5213 26.3497 90.133 25.9872C90.6938 25.5872 91.1526 25.0622 91.5095 24.4247C91.8409 23.7872 91.9938 23.0247 91.9938 22.1747C91.9938 21.3372 91.8409 20.5747 91.5095 19.9372C91.1748 19.3225 90.7046 18.7887 90.133 18.3747C89.5365 18.0101 88.8477 17.8169 88.1448 17.8169C87.4419 17.8169 86.7531 18.0101 86.1565 18.3747C85.583 18.7747 85.1369 19.2997 84.7673 19.9372C84.4303 20.6402 84.2645 21.4105 84.283 22.1872C84.2333 22.9254 84.3799 23.6637 84.7083 24.3298C85.0367 24.9959 85.5357 25.5669 86.1565 25.9872C86.7556 26.3497 87.4056 26.5497 88.1448 26.5497ZM97.7164 29.7122V14.6122H101.451L101.578 16.5747C102.047 15.8224 102.713 15.2068 103.506 14.7914C104.299 14.3761 105.191 14.1761 106.09 14.2122C107.117 14.1948 108.127 14.4748 108.993 15.0173C109.859 15.5598 110.543 16.3406 110.959 17.2622C111.405 18.2122 111.647 19.3872 111.647 20.6997V29.7497H107.581V21.2247C107.581 20.1747 107.339 19.3497 106.855 18.7372C106.37 18.1372 105.708 17.8122 104.866 17.8122C104.255 17.8122 103.719 17.9372 103.248 18.2122C102.802 18.4997 102.432 18.8622 102.152 19.3747C101.868 19.8927 101.728 20.4744 101.744 21.0622V29.7122H97.7164ZM113.673 29.7122V8.41219H117.739V16.5372C118.29 15.8081 119.006 15.215 119.831 14.8049C120.656 14.3948 121.568 14.179 122.493 14.1747C123.453 14.1609 124.404 14.3594 125.276 14.7554C126.147 15.1514 126.917 15.7347 127.527 16.4622C128.892 18.0153 129.615 20.0129 129.554 22.0622C129.576 24.1584 128.824 26.1917 127.438 27.7872C126.797 28.5239 125.999 29.1139 125.101 29.5156C124.203 29.9173 123.225 30.1209 122.238 30.1122C121.309 30.1371 120.389 29.9299 119.564 29.5101C118.739 29.0903 118.036 28.4716 117.522 27.7122L117.408 29.6747L113.673 29.7122ZM121.55 26.5497C122.289 26.5497 122.939 26.3497 123.538 25.9872C124.111 25.5872 124.558 25.0622 124.927 24.4247C125.246 23.7872 125.411 23.0247 125.411 22.1747C125.461 21.4364 125.315 20.6982 124.986 20.0321C124.658 19.366 124.159 18.7949 123.538 18.3747C122.941 18.0101 122.253 17.8169 121.55 17.8169C120.847 17.8169 120.158 18.0101 119.561 18.3747C119.001 18.7747 118.542 19.2997 118.185 19.9372C117.829 20.634 117.662 21.4088 117.701 22.1872C117.651 22.9254 117.798 23.6637 118.126 24.3298C118.454 24.9959 118.953 25.5669 119.574 25.9872C120.173 26.3497 120.785 26.5497 121.55 26.5497Z" fill="#FF385C"/>
</g>
<defs>
<clipPath id="clip0">
<rect width="130" height="40" fill="white"/>
</clipPath>
</defs>
</svg>
