<svg width="132" height="38" viewBox="0 0 132 38" fill="none" xmlns="http://www.w3.org/2000/svg">
<path fill-rule="evenodd" clip-rule="evenodd" d="M83.1041 11.227L80.9252 7.57296L77.0577 9.39999L74.8789 5.73512L71.0114 7.57296L68.8434 3.89729L64.976 5.73512L62.7971 2.07026L58.9296 3.9081L56.7616 0.232422L52.8833 2.07026L44.6798 28.5784L54.6481 31.6054C55.0236 30.4106 55.8174 29.3885 56.8861 28.7238C57.9547 28.0591 59.2277 27.7957 60.475 27.9811C61.7223 28.1665 62.8616 28.7885 63.6871 29.7347C64.5126 30.681 64.9697 31.889 64.976 33.1405V33.2486C64.9977 33.7243 64.9433 34.2 64.8016 34.6757L74.9333 37.7567L83.1041 11.227Z" fill="#D61920"/>
<path fill-rule="evenodd" clip-rule="evenodd" d="M53.2319 26.3946C52.9799 26.3532 52.7512 26.2236 52.5873 26.0292C52.4234 25.8348 52.3351 25.5885 52.3385 25.3351V12.3621C52.3371 12.2198 52.3643 12.0785 52.4185 11.9467C52.4727 11.8149 52.5529 11.6951 52.6544 11.5945C52.7558 11.4938 52.8765 11.4142 53.0094 11.3604C53.1422 11.3066 53.2845 11.2796 53.428 11.281H62.8733C63.4299 11.2796 63.9812 11.387 64.4959 11.597C65.0107 11.8071 65.4786 12.1156 65.8732 12.5051C66.2677 12.8946 66.5811 13.3574 66.7954 13.8671C67.0097 14.3768 67.1207 14.9234 67.1221 15.4756V25.3351C67.1218 25.4943 67.0861 25.6515 67.0175 25.7954C66.9489 25.9394 66.8491 26.0665 66.7253 26.1677C66.6014 26.2689 66.4565 26.3417 66.301 26.3809C66.1455 26.4202 65.9832 26.4248 65.8257 26.3946C65.5757 26.3509 65.3496 26.2203 65.1878 26.0261C65.0261 25.8319 64.9394 25.587 64.9433 25.3351V15.4865C64.9433 14.9417 64.7252 14.4192 64.337 14.034C63.9488 13.6488 63.4223 13.4324 62.8733 13.4324H60.8143V25.3243C60.8152 25.4691 60.7867 25.6127 60.7305 25.7464C60.6744 25.8801 60.5917 26.0013 60.4875 26.1027C60.3635 26.2247 60.2114 26.3151 60.0444 26.3659C59.8774 26.4168 59.7005 26.4266 59.5288 26.3946C59.2768 26.3532 59.0481 26.2236 58.8842 26.0292C58.7203 25.8348 58.632 25.5885 58.6355 25.3351V13.4324H54.5174V25.3243C54.5184 25.4833 54.4841 25.6406 54.4168 25.785C54.3495 25.9293 54.251 26.0571 54.1282 26.1593C54.0054 26.2616 53.8615 26.3356 53.7065 26.3763C53.5516 26.417 53.3895 26.4232 53.2319 26.3946ZM68.9415 32.0486C68.6876 32.007 68.4574 31.8758 68.2933 31.6791C68.1291 31.4825 68.0421 31.2336 68.0481 30.9783C68.0493 30.6947 68.1628 30.4229 68.3641 30.2216C68.5652 30.0179 68.8393 29.9013 69.1267 29.8973C70.0527 29.8973 70.848 29.3135 71.1094 28.4378L72.2316 24.7297L68.5602 12.5459C68.5164 12.4096 68.5003 12.2661 68.5128 12.1236C68.5253 11.9811 68.5662 11.8425 68.6331 11.7158C68.6999 11.5891 68.7915 11.4769 68.9024 11.3855C69.0133 11.2942 69.1414 11.2256 69.2792 11.1837C69.5536 11.1083 69.8468 11.1402 70.0981 11.273C70.3495 11.4057 70.5399 11.6292 70.6301 11.8973L73.3537 20.9783L76.1208 11.8973C76.2516 11.4 76.8072 11.0648 77.3737 11.1729L77.4499 11.1837C78.0382 11.3675 78.3651 11.9837 78.1907 12.5567L74.4104 25.054L73.212 29.054C72.9431 29.9148 72.4099 30.6708 71.6868 31.2162C70.9514 31.7635 70.0569 32.0594 69.1376 32.0594C69.072 32.0619 69.0064 32.0583 68.9415 32.0486Z" fill="#FEFEFE"/>
<path fill-rule="evenodd" clip-rule="evenodd" d="M2.35545 24.0271H4.49074C5.05994 24.0271 5.60583 23.8027 6.00832 23.4033C6.4108 23.0039 6.63692 22.4622 6.63692 21.8973V15.6595C6.63835 15.3798 6.58426 15.1026 6.47773 14.8437C6.37119 14.5847 6.21431 14.3492 6.01603 14.1504C5.81775 13.9516 5.58196 13.7936 5.32212 13.6852C5.06227 13.5769 4.78347 13.5204 4.50163 13.519H2.35545V24.0055V24.0271ZM1.01545 26.2541C0.753868 26.2103 0.516722 26.075 0.346886 25.8727C0.17705 25.6705 0.0857311 25.4146 0.0894373 25.1514V5.77843C0.0875116 5.63021 0.115429 5.48309 0.171551 5.34572C0.227673 5.20835 0.310872 5.08347 0.416267 4.97843C0.54378 4.84704 0.701868 4.74874 0.876634 4.69219C1.0514 4.63564 1.23749 4.62256 1.41854 4.6541C1.96326 4.76221 2.35545 5.21626 2.35545 5.76762V11.2811H4.49074C5.06964 11.2797 5.64314 11.3916 6.17839 11.6105C6.71364 11.8293 7.20012 12.1508 7.60997 12.5565C8.01983 12.9622 8.345 13.4442 8.56687 13.9748C8.78873 14.5054 8.90294 15.0742 8.90293 15.6487V21.8865C8.90006 23.044 8.43543 24.1533 7.61065 24.9717C6.78586 25.7902 5.66805 26.2512 4.50163 26.2541H1.22245C1.14964 26.2584 1.07658 26.2548 1.00456 26.2433L1.01545 26.2541Z" fill="#333545"/>
<path fill-rule="evenodd" clip-rule="evenodd" d="M16.5834 13.4324C16.4611 13.4112 16.3372 13.4003 16.213 13.3999C15.9304 13.397 15.65 13.4502 15.3883 13.5562C15.1266 13.6622 14.8888 13.8189 14.6889 14.0173C14.4891 14.2156 14.3311 14.4515 14.2243 14.7112C14.1174 14.9709 14.0639 15.2492 14.0668 15.5297V22.027C14.0654 22.307 14.1199 22.5846 14.2273 22.8437C14.3346 23.1027 14.4926 23.338 14.6922 23.5361C14.8918 23.7341 15.129 23.891 15.39 23.9975C15.651 24.104 15.9308 24.1581 16.213 24.1567C16.7822 24.1567 17.3281 23.9323 17.7306 23.5329C18.1331 23.1335 18.3592 22.5918 18.3592 22.027V15.5405C18.3592 14.4918 17.6075 13.6161 16.5834 13.4324ZM15.4395 26.3513C14.4181 26.173 13.4929 25.6424 12.8272 24.8532C12.1615 24.0641 11.798 23.0669 11.8008 22.0378V15.5405C11.7989 14.9655 11.9126 14.3958 12.1352 13.8649C12.3578 13.334 12.6848 12.8525 13.0972 12.4486C13.5063 12.0428 13.9921 11.7211 14.5268 11.5022C15.0615 11.2833 15.6346 11.1714 16.213 11.1729C17.3803 11.1729 18.4998 11.6331 19.3252 12.4521C20.1506 13.2712 20.6143 14.3821 20.6143 15.5405V22.0378C20.6143 23.2053 20.1567 24.308 19.3179 25.1405C18.9105 25.5455 18.4265 25.8667 17.8937 26.0856C17.3608 26.3045 16.7897 26.4168 16.213 26.4161C15.9538 26.4172 15.6949 26.3955 15.4395 26.3513ZM28.2948 13.4432C28.1725 13.4219 28.0486 13.4111 27.9244 13.4107C27.6417 13.4079 27.3614 13.461 27.0996 13.567C26.8379 13.673 26.6002 13.8297 26.4003 14.0281C26.2004 14.2264 26.0425 14.4624 25.9356 14.7221C25.8288 14.9817 25.7753 15.26 25.7782 15.5405V22.0378C25.7768 22.3178 25.8313 22.5954 25.9386 22.8545C26.046 23.1135 26.204 23.3489 26.4036 23.5469C26.6032 23.745 26.8403 23.9018 27.1014 24.0083C27.3624 24.1148 27.6421 24.1689 27.9244 24.1675C28.2066 24.1689 28.4864 24.1148 28.7474 24.0083C29.0084 23.9018 29.2456 23.745 29.4452 23.5469C29.6448 23.3489 29.8028 23.1135 29.9101 22.8545C30.0175 22.5954 30.072 22.3178 30.0706 22.0378V15.5405C30.0706 14.5026 29.3189 13.627 28.2948 13.4432ZM27.1509 26.3513C26.1314 26.1707 25.2088 25.6392 24.5453 24.8502C23.8817 24.0613 23.5198 23.0654 23.5231 22.0378V15.5405C23.5248 14.9033 23.6666 14.2743 23.9386 13.6971C24.2107 13.12 24.6063 12.6087 25.098 12.199C25.5898 11.7893 26.1656 11.4911 26.7855 11.325C27.4054 11.159 28.0543 11.1292 28.687 11.2378C29.7086 11.4135 30.6349 11.9415 31.3025 12.7286C31.9702 13.5158 32.3364 14.5116 32.3366 15.5405V22.0378C32.3379 22.6153 32.223 23.1872 31.9985 23.72C31.774 24.2529 31.4445 24.7358 31.0293 25.1405C30.6219 25.5455 30.1379 25.8667 29.605 26.0856C29.0722 26.3045 28.5011 26.4168 27.9244 26.4161C27.6629 26.4161 27.4015 26.3945 27.1509 26.3513ZM36.1605 26.3945C35.8989 26.3507 35.6618 26.2154 35.4919 26.0132C35.3221 25.8109 35.2308 25.5551 35.2345 25.2918V5.77831C35.2345 5.47561 35.3434 5.18372 35.5613 4.97831C35.6898 4.85242 35.847 4.75917 36.0196 4.70647C36.1922 4.65377 36.3751 4.64318 36.5527 4.67561C37.0974 4.7621 37.5005 5.22696 37.5005 5.77831V17.3243L42.708 11.5297C42.9694 11.2486 43.3616 11.1189 43.7538 11.1837C43.9516 11.2166 44.1368 11.3014 44.2904 11.4293C44.4439 11.5573 44.56 11.7237 44.6268 11.9114C44.6935 12.099 44.7084 12.3009 44.6698 12.4962C44.6312 12.6914 44.5406 12.8728 44.4075 13.0216L40.4746 17.3783L44.5382 24.7621C44.6114 24.8866 44.6587 25.0244 44.6774 25.1674C44.6961 25.3103 44.6858 25.4556 44.6472 25.5945C44.605 25.7377 44.5341 25.871 44.4386 25.9862C44.3431 26.1014 44.225 26.1962 44.0915 26.2648C43.8609 26.3964 43.5906 26.4424 43.3289 26.3945C43.1662 26.3672 43.0115 26.3046 42.8759 26.2112C42.7403 26.1178 42.6272 25.9958 42.5445 25.854L38.8841 19.1729L37.4896 20.6972V25.2918C37.4896 25.59 37.3702 25.876 37.1577 26.0868C36.9453 26.2977 36.6571 26.4161 36.3566 26.4161C36.2803 26.4161 36.215 26.4161 36.1387 26.3945H36.1605ZM86.0673 26.3837C85.4547 26.2819 84.8727 26.0456 84.3638 25.6921C83.8549 25.3386 83.432 24.8768 83.1258 24.3405C82.9762 24.0777 82.937 23.7669 83.0169 23.4756C83.1041 23.1945 83.2893 22.9567 83.5398 22.8053C83.7725 22.6792 84.042 22.6372 84.3024 22.6864C84.6293 22.7405 84.9234 22.9351 85.0868 23.227C85.381 23.7243 85.8494 24.0486 86.4268 24.1459C86.7245 24.1972 87.0301 24.1811 87.3206 24.0987C87.6111 24.0163 87.8791 23.8698 88.1045 23.6702C88.5403 23.2702 88.7582 22.6972 88.7037 22.1351C88.6916 21.8469 88.6114 21.5656 88.4694 21.314C88.3275 21.0623 88.1278 20.8473 87.8867 20.6864L84.8363 18.5351C84.3393 18.1888 83.9254 17.7379 83.6241 17.2147C83.3228 16.6915 83.1415 16.1088 83.0932 15.508C83.0537 14.902 83.1539 14.2949 83.3861 13.733C83.6183 13.1711 83.9763 12.669 84.4332 12.2648C84.8789 11.8537 85.4113 11.5462 85.9917 11.3648C86.5721 11.1834 87.1859 11.1326 87.7886 11.2161C89.0741 11.4324 90.12 12.1675 90.7192 13.2053C90.8636 13.4647 90.9011 13.7695 90.8239 14.0557C90.7467 14.3419 90.5608 14.5873 90.3052 14.7405C90.0745 14.8721 89.8043 14.918 89.5426 14.8702C89.3798 14.8429 89.2251 14.7803 89.0896 14.6869C88.954 14.5934 88.8408 14.4715 88.7582 14.3297C88.6215 14.1003 88.4354 13.9038 88.2131 13.7543C87.9909 13.6047 87.738 13.5059 87.4727 13.4648C87.2012 13.416 86.9221 13.4307 86.6573 13.5077C86.3926 13.5846 86.1495 13.7217 85.9475 13.908C85.7502 14.0928 85.5962 14.3183 85.4964 14.5687C85.3967 14.819 85.3535 15.088 85.3701 15.3567C85.3919 15.8864 85.6969 16.4053 86.1545 16.708L89.2049 18.8161C89.7227 19.1759 90.1509 19.6483 90.4567 20.1973C90.7626 20.7462 90.938 21.3572 90.9697 21.9837C91.0202 22.6073 90.9234 23.2339 90.687 23.8138C90.4506 24.3937 90.0811 24.9109 89.608 25.3243C89.1478 25.7486 88.598 26.0658 87.9987 26.2528C87.3994 26.4398 86.7657 26.4919 86.1436 26.4053L86.0564 26.3837H86.0673ZM94.8154 26.4161C94.5538 26.3705 94.3166 26.2351 94.1453 26.0335C93.9741 25.832 93.8796 25.5771 93.8785 25.3134V5.79993C93.8771 5.65188 93.9054 5.50503 93.9618 5.36797C94.0182 5.23091 94.1016 5.10639 94.2071 5.0017C94.3126 4.897 94.4381 4.81424 94.5762 4.75825C94.7144 4.70226 94.8623 4.67417 95.0115 4.67561L95.2294 4.68642C95.7741 4.79453 96.1445 5.23777 96.1445 5.79993V11.3134H98.2907C98.8691 11.312 99.4421 11.424 99.9767 11.643C100.511 11.862 100.997 12.1836 101.406 12.5895C101.815 12.9953 102.139 13.4774 102.36 14.0079C102.581 14.5385 102.693 15.1071 102.692 15.681V25.3026C102.693 25.4659 102.658 25.6273 102.589 25.7755C102.52 25.9238 102.419 26.0551 102.293 26.1603C102.167 26.2655 102.02 26.342 101.861 26.3844C101.702 26.4267 101.536 26.4339 101.374 26.4053C100.829 26.308 100.437 25.8432 100.437 25.2918V15.6702C100.437 15.391 100.381 15.1146 100.273 14.8568C100.165 14.599 100.007 14.365 99.8076 14.1681C99.6082 13.9712 99.3715 13.8153 99.1112 13.7095C98.8509 13.6036 98.5721 13.5499 98.2907 13.5513H96.1445V25.3026C96.1458 25.467 96.1104 25.6295 96.0408 25.7787C95.9712 25.9278 95.8693 26.0598 95.7422 26.1652C95.6152 26.2706 95.4662 26.3468 95.3059 26.3883C95.1457 26.4298 94.9782 26.4357 94.8154 26.4053V26.4161ZM110.373 13.454C110.064 13.3984 109.747 13.411 109.443 13.4909C109.14 13.5708 108.858 13.716 108.618 13.9162C108.378 14.1165 108.185 14.3668 108.053 14.6494C107.921 14.932 107.854 15.2399 107.856 15.5513V22.0486C107.854 22.3277 107.909 22.6044 108.015 22.8628C108.122 23.1211 108.279 23.356 108.477 23.5539C108.676 23.7518 108.912 23.9088 109.172 24.016C109.431 24.1231 109.71 24.1783 109.991 24.1783C110.558 24.1783 111.102 23.9621 111.506 23.5621C111.707 23.3644 111.867 23.1287 111.976 22.8687C112.084 22.6088 112.139 22.3299 112.137 22.0486V15.5405C112.137 14.5026 111.397 13.6161 110.362 13.4432L110.373 13.454ZM109.218 26.3405C108.199 26.1622 107.277 25.6328 106.613 24.8457C105.949 24.0585 105.587 23.0641 105.59 22.0378V15.5405C105.59 14.9024 105.731 14.2721 106.002 13.6937C106.273 13.1152 106.669 12.6026 107.161 12.1917C107.653 11.7808 108.229 11.4816 108.85 11.3149C109.47 11.1483 110.12 11.1183 110.754 11.227C111.777 11.403 112.705 11.9326 113.373 12.722C114.041 13.5114 114.406 14.5097 114.403 15.5405V22.0378C114.404 22.6135 114.289 23.1836 114.064 23.7146C113.84 24.2455 113.51 24.7266 113.096 25.1297C112.596 25.6276 111.983 25.9979 111.307 26.2087C110.632 26.4196 109.915 26.4648 109.218 26.3405Z" fill="#333545"/>
<path fill-rule="evenodd" clip-rule="evenodd" d="M131.802 12.5567C131.839 12.4194 131.848 12.2761 131.83 12.1352C131.811 11.9942 131.764 11.8582 131.693 11.7351C131.61 11.6039 131.502 11.4904 131.375 11.4012C131.248 11.3121 131.104 11.2492 130.952 11.2162C130.671 11.1635 130.38 11.2192 130.139 11.3719C129.899 11.5246 129.725 11.7628 129.655 12.0378C129.655 12.0919 128.435 16.9676 127.477 20.6757L127.455 20.7513L127.433 20.6757L125.254 12.0486C125.212 11.838 125.106 11.6453 124.95 11.4964C124.794 11.3476 124.596 11.2497 124.383 11.2162C124.318 11.2036 124.252 11.1963 124.187 11.1946C123.685 11.1946 123.25 11.5405 123.108 12.0378C123.097 12.0919 121.877 16.9676 120.929 20.6757L120.907 20.7513L120.886 20.6757C119.96 16.9676 118.707 12.0919 118.707 12.0378C118.655 11.8309 118.545 11.6432 118.388 11.4974C118.231 11.3516 118.036 11.2539 117.824 11.2162C117.643 11.1844 117.456 11.1978 117.282 11.2552C117.107 11.3127 116.949 11.4124 116.823 11.5453C116.696 11.6782 116.605 11.8403 116.557 12.0168C116.51 12.1934 116.507 12.3789 116.55 12.5567L119.829 25.5621C119.891 25.8005 120.03 26.012 120.225 26.1644C120.42 26.3167 120.659 26.4014 120.907 26.4054C121.441 26.4054 121.866 26.0594 121.975 25.5621L124.154 16.9243L124.187 16.8486L124.208 16.9243C125.167 20.6757 126.387 25.573 126.387 25.573C126.452 25.8067 126.591 26.0136 126.783 26.1634C126.975 26.3132 127.211 26.398 127.455 26.4054C127.706 26.4132 127.952 26.3329 128.149 26.1786C128.346 26.0244 128.482 25.8061 128.533 25.5621L131.802 12.5567Z" fill="#333545"/>
</svg>
