<svg width="140" height="40" viewBox="0 0 140 40" fill="none" xmlns="http://www.w3.org/2000/svg">
<path d="M15.1612 6.62122V17.9041H4.88077V6.62122H0V33.5546H4.88077V22.6381H15.1612V33.5546H20.042V6.62122H15.1612Z" fill="#33475B"/>
<path d="M35.6624 24.8484C35.6624 25.9278 35.237 26.963 34.4798 27.7262C33.7226 28.4895 32.6955 28.9183 31.6246 28.9183C30.5537 28.9183 29.5267 28.4895 28.7695 27.7262C28.0122 26.963 27.5868 25.9278 27.5868 24.8484V13.3124H22.9571V24.8484C22.9571 27.1632 23.8694 29.3832 25.4933 31.02C27.1172 32.6568 29.3197 33.5763 31.6163 33.5763C33.9128 33.5763 36.1153 32.6568 37.7392 31.02C39.3631 29.3832 40.2754 27.1632 40.2754 24.8484V13.3124H35.6624V24.8484Z" fill="#33475B"/>
<path d="M69.9644 14.5007C69.9644 12.1361 71.5164 11.3865 73.2167 11.3865C74.5869 11.3865 76.3972 12.4374 77.5809 13.7125L80.6131 10.1114C79.0994 8.04815 76.0289 6.62122 73.5156 6.62122C68.4937 6.62122 64.8612 9.58597 64.8612 14.5007C64.8612 23.6191 75.9189 20.7267 75.9189 25.8294C75.9189 27.4034 74.4028 28.7942 72.6666 28.7942C69.9285 28.7942 69.0413 27.4444 67.7835 26.0174L64.4188 29.5438C66.5711 32.2072 69.2255 33.5595 72.406 33.5595C77.1768 33.5595 81.0149 30.5585 81.0149 25.868C81.0149 15.7444 69.9572 18.89 69.9572 14.5007" fill="#33475B"/>
<path d="M138.371 29.252C135.636 29.252 134.859 28.0589 134.859 26.2318V18.1451H139.11V14.0474H134.859V8.64099L130.164 10.7645V27.237C130.164 31.4503 133.048 33.5738 137.004 33.5738C137.624 33.5852 138.244 33.5351 138.854 33.4244L140 29.1749C139.483 29.211 138.89 29.2472 138.371 29.2472" fill="#33475B"/>
<path d="M53.2844 13.4472C50.9911 13.4472 49.3913 14.1173 47.8441 15.6479V6.78259H43.2072V23.214C43.2072 29.3653 47.6193 33.5786 52.5766 33.5786C58.0767 33.5786 62.9144 29.2906 62.9144 23.5153C62.9144 17.8124 58.4617 13.4497 53.2844 13.4497V13.4472ZM53.2557 28.876C52.2152 28.876 51.198 28.565 50.3329 27.9823C49.4677 27.3996 48.7934 26.5714 48.3952 25.6025C47.997 24.6335 47.8928 23.5673 48.0958 22.5387C48.2988 21.51 48.7999 20.5652 49.5356 19.8235C50.2714 19.0819 51.2088 18.5769 52.2294 18.3723C53.2499 18.1677 54.3077 18.2727 55.269 18.674C56.2303 19.0754 57.052 19.7551 57.6301 20.6271C58.2082 21.4992 58.5167 22.5244 58.5167 23.5732C58.5167 24.9796 57.9624 26.3284 56.9758 27.3228C55.9892 28.3173 54.651 28.876 53.2557 28.876Z" fill="#33475B"/>
<path d="M103.632 23.2697C103.632 17.4848 98.8038 13.2064 93.2941 13.2064C88.3368 13.2064 83.9248 17.4197 83.9248 23.571V40.0121H88.5616V31.1347C90.1064 32.6629 91.7086 33.3354 93.9996 33.3354C99.1769 33.3354 103.63 28.975 103.63 23.2697H103.632ZM99.2414 23.2118C99.2414 24.2606 98.9329 25.2859 98.3548 26.1579C97.7767 27.03 96.9551 27.7096 95.9937 28.111C95.0324 28.5123 93.9746 28.6174 92.9541 28.4127C91.9335 28.2081 90.9961 27.7031 90.2604 26.9615C89.5246 26.2199 89.0235 25.275 88.8205 24.2464C88.6175 23.2177 88.7217 22.1515 89.1199 21.1825C89.5181 20.2136 90.1924 19.3854 91.0576 18.8027C91.9228 18.22 92.9399 17.909 93.9804 17.909C95.3757 17.909 96.7139 18.4677 97.7005 19.4622C98.6872 20.4567 99.2414 21.8054 99.2414 23.2118Z" fill="#33475B"/>
<path d="M118.612 12.9798V8.28439C119.227 7.99445 119.749 7.53424 120.115 6.95731C120.481 6.38038 120.677 5.71047 120.68 5.02558V4.91711C120.68 3.95821 120.302 3.03858 119.63 2.36053C118.957 1.68249 118.045 1.30156 117.093 1.30156H116.986C116.034 1.30156 115.122 1.68249 114.449 2.36053C113.776 3.03858 113.399 3.95821 113.399 4.91711V5.02558C113.402 5.71047 113.598 6.38038 113.964 6.95731C114.33 7.53424 114.851 7.99445 115.467 8.28439V12.9798C113.698 13.2526 112.031 13.9918 110.637 15.1226L97.8619 5.09307C97.9523 4.76233 98.0005 4.42133 98.0054 4.0783C98.0068 3.27254 97.7711 2.48445 97.3281 1.81372C96.8851 1.14298 96.2547 0.619745 95.5166 0.31018C94.7786 0.000615035 93.966 -0.0813674 93.1817 0.0746023C92.3974 0.230572 91.6766 0.617487 91.1105 1.18641C90.5444 1.75533 90.1584 2.48069 90.0013 3.27076C89.8443 4.06082 89.9232 4.88009 90.2281 5.62493C90.5331 6.36977 91.0503 7.00673 91.7145 7.45523C92.3786 7.90373 93.1598 8.14363 93.9592 8.14459C94.6582 8.14144 95.3442 7.95362 95.9488 7.59985L108.53 17.4655C107.399 19.1864 106.809 21.2107 106.837 23.2745C106.865 25.3383 107.509 27.3458 108.685 29.0352L104.859 32.8918C104.55 32.7922 104.227 32.7394 103.902 32.7351C103.246 32.7356 102.605 32.9322 102.059 33.3C101.514 33.6678 101.089 34.1903 100.838 34.8015C100.587 35.4128 100.521 36.0852 100.65 36.734C100.778 37.3827 101.094 37.9787 101.558 38.4464C102.022 38.9141 102.613 39.2327 103.257 39.3619C103.9 39.4911 104.568 39.425 105.174 39.1721C105.78 38.9192 106.299 38.4907 106.664 37.9409C107.029 37.3911 107.224 36.7446 107.224 36.0831C107.22 35.7558 107.168 35.4308 107.069 35.119L110.854 31.3034C112.089 32.2608 113.524 32.9208 115.05 33.2328C116.577 33.5447 118.154 33.5004 119.661 33.1032C121.168 32.706 122.564 31.9664 123.744 30.9412C124.924 29.9159 125.855 28.6321 126.466 27.1882C127.077 25.7442 127.353 24.1784 127.271 22.6106C127.189 21.0429 126.752 19.5147 125.994 18.1433C125.236 16.7719 124.177 15.5936 122.897 14.6986C121.618 13.8035 120.152 13.2156 118.612 12.9798ZM117.043 28.4206C116.008 28.4196 114.996 28.1093 114.135 27.5288C113.274 26.9483 112.604 26.1237 112.208 25.1592C111.812 24.1947 111.709 23.1336 111.912 22.11C112.114 21.0864 112.613 20.1463 113.345 19.4084C114.078 18.6706 115.011 18.1681 116.026 17.9646C117.042 17.761 118.095 17.8655 119.051 18.2648C120.008 18.6641 120.826 19.3403 121.401 20.2079C121.977 21.0756 122.284 22.0957 122.285 23.1395C122.285 24.5395 121.733 25.8821 120.751 26.8721C119.769 27.862 118.437 28.4182 117.048 28.4182" fill="#FF7A59"/>
</svg>
