<svg width="30" height="30" viewBox="0 0 30 30" fill="none" xmlns="http://www.w3.org/2000/svg">
<path d="M5.66667 0.333252H1.66667C1.31305 0.333252 0.973908 0.473727 0.723859 0.723775C0.473811 0.973824 0.333336 1.31296 0.333336 1.66659V28.3333C0.333336 28.6869 0.473811 29.026 0.723859 29.2761C0.973908 29.5261 1.31305 29.6666 1.66667 29.6666H5.66667V0.333252Z" fill="#D6B1FF"/>
<path d="M8.33333 29.6666H21.6667V0.333252H8.33333V29.6666ZM15 24.3333C14.6464 24.3333 14.3072 24.1928 14.0572 23.9427C13.8071 23.6927 13.6667 23.3535 13.6667 22.9999C13.6667 22.6463 13.8071 22.3072 14.0572 22.0571C14.3072 21.8071 14.6464 21.6666 15 21.6666C15.3536 21.6666 15.6928 21.8071 15.9428 22.0571C16.1929 22.3072 16.3333 22.6463 16.3333 22.9999C16.3333 23.3535 16.1929 23.6927 15.9428 23.9427C15.6928 24.1928 15.3536 24.3333 15 24.3333ZM15 5.66658C15.3536 5.66658 15.6928 5.80706 15.9428 6.05711C16.1929 6.30716 16.3333 6.6463 16.3333 6.99992C16.3333 7.35354 16.1929 7.69268 15.9428 7.94273C15.6928 8.19278 15.3536 8.33325 15 8.33325C14.6464 8.33325 14.3072 8.19278 14.0572 7.94273C13.8071 7.69268 13.6667 7.35354 13.6667 6.99992C13.6667 6.6463 13.8071 6.30716 14.0572 6.05711C14.3072 5.80706 14.6464 5.66658 15 5.66658ZM15 13.6666C15.3536 13.6666 15.6928 13.8071 15.9428 14.0571C16.1929 14.3072 16.3333 14.6463 16.3333 14.9999C16.3333 15.3535 16.1929 15.6927 15.9428 15.9427C15.6928 16.1928 15.3536 16.3333 15 16.3333C14.6464 16.3333 14.3072 16.1928 14.0572 15.9427C13.8071 15.6927 13.6667 15.3535 13.6667 14.9999C13.6667 14.6463 13.8071 14.3072 14.0572 14.0571C14.3072 13.8071 14.6464 13.6666 15 13.6666Z" fill="#8C30F5"/>
<path d="M28.3333 0.333252H24.3333V29.6666H28.3333C28.687 29.6666 29.0261 29.5261 29.2762 29.2761C29.5262 29.026 29.6667 28.6869 29.6667 28.3333V1.66659C29.6667 1.31296 29.5262 0.973824 29.2762 0.723775C29.0261 0.473727 28.687 0.333252 28.3333 0.333252Z" fill="#2EC5CE"/>
</svg>
