<svg width="30" height="30" viewBox="0 0 30 30" fill="none" xmlns="http://www.w3.org/2000/svg">
<path d="M11 12.3333H1.66668C1.31305 12.3333 0.973915 12.1928 0.723867 11.9427C0.473818 11.6927 0.333344 11.3535 0.333344 10.9999V1.66659C0.333344 1.31296 0.473818 0.973824 0.723867 0.723775C0.973915 0.473727 1.31305 0.333252 1.66668 0.333252H11C11.3536 0.333252 11.6928 0.473727 11.9428 0.723775C12.1929 0.973824 12.3333 1.31296 12.3333 1.66659V10.9999C12.3333 11.3535 12.1929 11.6927 11.9428 11.9427C11.6928 12.1928 11.3536 12.3333 11 12.3333Z" fill="#8C30F5"/>
<path d="M11 29.6665H1.66668C1.31305 29.6665 0.973915 29.526 0.723867 29.276C0.473818 29.0259 0.333344 28.6868 0.333344 28.3332V18.9998C0.333344 18.6462 0.473818 18.3071 0.723867 18.057C0.973915 17.807 1.31305 17.6665 1.66668 17.6665H11C11.3536 17.6665 11.6928 17.807 11.9428 18.057C12.1929 18.3071 12.3333 18.6462 12.3333 18.9998V28.3332C12.3333 28.6868 12.1929 29.0259 11.9428 29.276C11.6928 29.526 11.3536 29.6665 11 29.6665Z" fill="#8C30F5"/>
<path d="M16.3333 1.6665H29.6667V4.33317H16.3333V1.6665Z" fill="#2EC5CE"/>
<path d="M29.6667 19H16.3333V21.6667H29.6667V19Z" fill="#2EC5CE"/>
<path d="M29.6667 25.6665H16.3333V28.3332H29.6667V25.6665Z" fill="#D6B1FF"/>
<path d="M29.6667 8.33325H16.3333V10.9999H29.6667V8.33325Z" fill="#D6B1FF"/>
</svg>
