<svg width="135" height="40" viewBox="0 0 135 40" fill="none" xmlns="http://www.w3.org/2000/svg">
<path d="M124.249 0.00013H10.7566C10.3429 0.00013 9.9342 0.00013 9.5216 0.00213C9.17621 0.00413 8.83358 0.00994 8.48488 0.01483C7.72733 0.0227318 6.97157 0.0818063 6.22416 0.19154C5.4778 0.303663 4.75482 0.515046 4.07967 0.81854C3.40534 1.1246 2.7892 1.5223 2.25357 1.9972C1.71514 2.47077 1.26632 3.01815 0.924356 3.61829C0.581453 4.21724 0.343683 4.85907 0.219258 5.52161C0.0936495 6.18332 0.0260586 6.85265 0.0170916 7.52361C0.00662229 7.83021 0.00551669 8.13783 0 8.44447V31.5587C0.00551669 31.8692 0.00662229 32.17 0.0170916 32.4806C0.0260614 33.1516 0.0936522 33.8209 0.219258 34.4825C0.343339 35.1455 0.581124 35.7877 0.924356 36.3868C1.26616 36.985 1.71505 37.5302 2.25357 38.0011C2.78717 38.4781 3.40371 38.8761 4.07967 39.1798C4.75481 39.4841 5.47772 39.6968 6.22416 39.8106C6.9717 39.9195 7.72738 39.9786 8.48488 39.9874C8.83358 39.9942 9.17621 39.9981 9.5216 39.9981C9.93419 40.0001 10.343 40.0001 10.7566 40.0001H124.249C124.655 40.0001 125.067 40.0001 125.472 39.9981C125.816 39.9981 126.169 39.9942 126.512 39.9874C127.268 39.9791 128.023 39.92 128.769 39.8106C129.518 39.696 130.243 39.4834 130.921 39.1798C131.597 38.8759 132.213 38.478 132.746 38.0011C133.283 37.5284 133.733 36.9836 134.079 36.3868C134.42 35.7872 134.655 35.1451 134.777 34.4825C134.903 33.8208 134.973 33.1516 134.987 32.4806C134.991 32.17 134.991 31.8692 134.991 31.5587C135 31.1954 135 30.8341 135 30.4649V9.53626C135 9.17005 135 8.80677 134.991 8.44447C134.991 8.13783 134.991 7.83021 134.987 7.52357C134.973 6.85255 134.903 6.18337 134.777 5.52157C134.655 4.85941 134.419 4.21763 134.079 3.61825C133.383 2.41533 132.278 1.43616 130.921 0.81845C130.243 0.515697 129.518 0.30437 128.769 0.19145C128.023 0.0812328 127.269 0.0221378 126.512 0.01469C126.169 0.00981 125.816 0.00395 125.472 0.002C125.067 0 124.655 0 124.249 0V0.00013Z" fill="#A6A6A6"/>
<path d="M9.42998 39.1281C9.08566 39.1281 8.74966 39.1242 8.40804 39.1174C7.70034 39.1093 6.9943 39.0547 6.29571 38.9543C5.6443 38.855 5.01327 38.6703 4.42342 38.4063C3.83897 38.1444 3.30591 37.8011 2.84466 37.3895C2.37673 36.9826 1.98715 36.5108 1.69137 35.9927C1.39233 35.4711 1.18538 34.9121 1.07772 34.3351C0.961463 33.7151 0.898562 33.0882 0.889561 32.4597C0.882396 32.2488 0.873016 31.5464 0.873016 31.5464V8.44104C0.873016 8.44104 0.883007 7.74949 0.889618 7.54631C0.898236 6.91886 0.960772 6.2929 1.07668 5.67385C1.18454 5.09525 1.39165 4.53463 1.69085 4.0114C1.98554 3.49361 2.37296 3.02143 2.83807 2.61316C3.30266 2.20102 3.83742 1.85593 4.42286 1.59048C5.01136 1.32731 5.6412 1.14391 6.29129 1.04642C6.99218 0.944969 7.70067 0.890117 8.41082 0.88233L9.43053 0.870117H125.57L126.602 0.88282C127.306 0.890221 128.008 0.944583 128.702 1.04544C129.359 1.14415 129.995 1.32883 130.59 1.59341C131.763 2.12837 132.718 2.97472 133.32 4.01384C133.614 4.53346 133.818 5.08951 133.924 5.66311C134.042 6.28724 134.107 6.91812 134.121 7.55071C134.124 7.83397 134.124 8.13824 134.124 8.44104C134.133 8.81612 134.133 9.17312 134.133 9.53306V30.4661C134.133 30.8295 134.133 31.1841 134.124 31.5415C134.124 31.8668 134.124 32.1648 134.12 32.4714C134.106 33.0927 134.042 33.7123 133.927 34.3253C133.821 34.9065 133.615 35.4699 133.316 35.9957C133.018 36.5082 132.631 36.9759 132.169 37.3817C131.707 37.7955 131.173 38.1409 130.587 38.4044C129.993 38.6704 129.358 38.8558 128.702 38.9543C128.004 39.0553 127.297 39.1098 126.59 39.1174C126.259 39.1242 125.912 39.1281 125.576 39.1281L124.35 39.1301L9.42998 39.1281Z" fill="black"/>
<path d="M32.7973 20.3008C32.8081 19.4662 33.0298 18.6478 33.4418 17.9218C33.8538 17.1959 34.4428 16.5859 35.1539 16.1488C34.7021 15.5036 34.1062 14.9727 33.4134 14.5981C32.7205 14.2236 31.9499 14.0157 31.1627 13.9911C29.4835 13.8148 27.8555 14.9959 26.9998 14.9959C26.1275 14.9959 24.81 14.0086 23.3913 14.0378C22.4736 14.0674 21.5793 14.3343 20.7954 14.8123C20.0115 15.2904 19.3649 15.9633 18.9184 16.7656C16.9844 20.1141 18.427 25.0351 20.2796 27.7417C21.2065 29.0671 22.2898 30.5475 23.7072 30.495C25.0943 30.4375 25.6123 29.6105 27.2866 29.6105C28.9454 29.6105 29.4314 30.495 30.8776 30.4616C32.366 30.4375 33.3038 29.1304 34.1981 27.7925C34.8641 26.8481 35.3766 25.8044 35.7166 24.7C34.8518 24.3343 34.1139 23.7221 33.5948 22.9398C33.0757 22.1575 32.7983 21.2397 32.7973 20.3008Z" fill="white"/>
<path d="M30.0657 12.2108C30.8772 11.2366 31.277 9.98445 31.1802 8.72021C29.9404 8.85044 28.7951 9.44299 27.9726 10.3798C27.5705 10.8375 27.2625 11.3699 27.0663 11.9467C26.87 12.5235 26.7894 13.1333 26.8289 13.7412C27.4491 13.7476 28.0626 13.6132 28.6232 13.3481C29.1839 13.083 29.6771 12.6942 30.0657 12.2108Z" fill="white"/>
<path d="M50.3307 27.1397H45.5973L44.4606 30.4961H42.4557L46.9391 18.0781H49.0221L53.5055 30.4961H51.4664L50.3307 27.1397ZM46.0875 25.5908H49.8395L47.9899 20.1436H47.9381L46.0875 25.5908Z" fill="white"/>
<path d="M63.1881 25.9699C63.1881 28.7834 61.6823 30.591 59.4098 30.591C58.8342 30.6211 58.2617 30.4885 57.7579 30.2084C57.2541 29.9283 56.8394 29.5119 56.5612 29.007H56.5182V33.4914H54.6598V21.4426H56.4586V22.9485H56.4928C56.7838 22.446 57.2055 22.0318 57.7131 21.7499C58.2208 21.4681 58.7953 21.3291 59.3756 21.3479C61.6735 21.3479 63.1881 23.1643 63.1881 25.9699ZM61.278 25.9699C61.278 24.1369 60.3307 22.9319 58.8854 22.9319C57.4655 22.9319 56.5104 24.1623 56.5104 25.9699C56.5104 27.7942 57.4655 29.0158 58.8854 29.0158C60.3307 29.0158 61.278 27.8196 61.278 25.9699Z" fill="white"/>
<path d="M73.1529 25.9699C73.1529 28.7834 71.6471 30.591 69.3746 30.591C68.7989 30.6211 68.2264 30.4885 67.7227 30.2084C67.2189 29.9283 66.8041 29.5119 66.526 29.007H66.483V33.4914H64.6246V21.4426H66.4234V22.9484H66.4576C66.7485 22.446 67.1703 22.0318 67.6779 21.7499C68.1855 21.4681 68.7601 21.3291 69.3404 21.3479C71.6383 21.3479 73.1529 23.1643 73.1529 25.9699ZM71.2428 25.9699C71.2428 24.1369 70.2955 22.9318 68.8502 22.9318C67.4303 22.9318 66.4752 24.1623 66.4752 25.9699C66.4752 27.7942 67.4303 29.0158 68.8502 29.0158C70.2955 29.0158 71.2428 27.8195 71.2428 25.9699H71.2428Z" fill="white"/>
<path d="M79.7389 27.0362C79.8766 28.2676 81.0729 29.0762 82.7077 29.0762C84.2741 29.0762 85.401 28.2676 85.401 27.1572C85.401 26.1934 84.7213 25.6162 83.112 25.2207L81.5026 24.833C79.2223 24.2822 78.1637 23.2158 78.1637 21.4854C78.1637 19.3428 80.0309 17.8711 82.6823 17.8711C85.3063 17.8711 87.1051 19.3428 87.1657 21.4854H85.2897C85.1774 20.2461 84.153 19.4981 82.6559 19.4981C81.1588 19.4981 80.1344 20.2549 80.1344 21.3565C80.1344 22.2344 80.7887 22.751 82.3893 23.1465L83.7574 23.4824C86.3053 24.0849 87.3639 25.1084 87.3639 26.9248C87.3639 29.248 85.5133 30.7031 82.5699 30.7031C79.816 30.7031 77.9567 29.2822 77.8365 27.0361L79.7389 27.0362Z" fill="white"/>
<path d="M91.3746 19.2998V21.4424H93.0963V22.9141H91.3746V27.9053C91.3746 28.6807 91.7194 29.042 92.4762 29.042C92.6806 29.0384 92.8846 29.0241 93.0875 28.999V30.4619C92.7472 30.5255 92.4014 30.5543 92.0553 30.5478C90.2223 30.5478 89.5074 29.8593 89.5074 28.1035V22.9141H88.191V21.4424H89.5074V19.2998H91.3746Z" fill="white"/>
<path d="M94.0934 25.9697C94.0934 23.1211 95.7712 21.3311 98.3874 21.3311C101.012 21.3311 102.682 23.1211 102.682 25.9697C102.682 28.8262 101.021 30.6084 98.3874 30.6084C95.7545 30.6084 94.0934 28.8262 94.0934 25.9697ZM100.789 25.9697C100.789 24.0156 99.8932 22.8623 98.3874 22.8623C96.8815 22.8623 95.987 24.0244 95.987 25.9697C95.987 27.9316 96.8815 29.0762 98.3874 29.0762C99.8932 29.0762 100.789 27.9316 100.789 25.9697H100.789Z" fill="white"/>
<path d="M104.214 21.4425H105.987V22.9835H106.03C106.15 22.5022 106.432 22.0769 106.828 21.779C107.225 21.4811 107.712 21.3288 108.208 21.3478C108.422 21.347 108.635 21.3703 108.844 21.4171V23.1554C108.574 23.0728 108.292 23.0348 108.009 23.0431C107.739 23.0321 107.47 23.0797 107.22 23.1826C106.971 23.2855 106.746 23.4412 106.562 23.6391C106.378 23.837 106.239 24.0724 106.155 24.3291C106.07 24.5857 106.042 24.8576 106.073 25.1261V30.4962H104.214L104.214 21.4425Z" fill="white"/>
<path d="M117.413 27.8369C117.163 29.4805 115.562 30.6084 113.514 30.6084C110.88 30.6084 109.246 28.8437 109.246 26.0127C109.246 23.1729 110.889 21.3311 113.436 21.3311C115.941 21.3311 117.516 23.0518 117.516 25.7969V26.4336H111.122V26.5459C111.092 26.8791 111.134 27.2148 111.244 27.5306C111.354 27.8464 111.53 28.1352 111.761 28.3778C111.991 28.6203 112.27 28.8111 112.58 28.9374C112.89 29.0637 113.223 29.1226 113.557 29.1103C113.996 29.1515 114.437 29.0498 114.814 28.8203C115.191 28.5909 115.483 28.246 115.648 27.8369L117.413 27.8369ZM111.13 25.1348H115.657C115.674 24.8352 115.628 24.5354 115.523 24.2541C115.419 23.9729 115.257 23.7164 115.049 23.5006C114.84 23.2849 114.589 23.1145 114.312 23.0003C114.034 22.8861 113.736 22.8305 113.436 22.8369C113.134 22.8351 112.834 22.8933 112.553 23.008C112.273 23.1227 112.019 23.2918 111.805 23.5054C111.59 23.7191 111.42 23.973 111.305 24.2527C111.189 24.5323 111.13 24.8321 111.13 25.1348V25.1348Z" fill="white"/>
<path d="M45.8546 8.73089C46.2442 8.70293 46.6352 8.76179 46.9993 8.90323C47.3634 9.04466 47.6916 9.26514 47.9602 9.54876C48.2288 9.83239 48.4311 10.1721 48.5525 10.5434C48.6739 10.9146 48.7114 11.3082 48.6622 11.6957C48.6622 13.602 47.632 14.6977 45.8546 14.6977H43.6993V8.73089H45.8546ZM44.6261 13.8539H45.7511C46.0295 13.8705 46.3081 13.8249 46.5666 13.7203C46.8252 13.6157 47.0571 13.4547 47.2456 13.2491C47.4341 13.0436 47.5744 12.7986 47.6563 12.532C47.7381 12.2653 47.7595 11.9838 47.7189 11.7079C47.7566 11.4331 47.733 11.1533 47.6499 10.8886C47.5668 10.624 47.4262 10.381 47.2381 10.177C47.05 9.9731 46.8192 9.81329 46.5621 9.70905C46.305 9.60481 46.0281 9.55873 45.7511 9.5741H44.6261V13.8539Z" fill="white"/>
<path d="M49.7091 12.4443C49.6808 12.1484 49.7146 11.8498 49.8085 11.5677C49.9023 11.2857 50.0541 11.0263 50.254 10.8063C50.4539 10.5864 50.6977 10.4106 50.9695 10.2903C51.2414 10.17 51.5353 10.1079 51.8326 10.1079C52.1299 10.1079 52.4239 10.17 52.6957 10.2903C52.9676 10.4106 53.2113 10.5864 53.4112 10.8063C53.6112 11.0263 53.7629 11.2857 53.8568 11.5677C53.9506 11.8498 53.9845 12.1484 53.9562 12.4443C53.985 12.7405 53.9515 13.0395 53.858 13.322C53.7644 13.6045 53.6127 13.8644 53.4127 14.0848C53.2127 14.3052 52.9688 14.4813 52.6967 14.6019C52.4246 14.7224 52.1302 14.7847 51.8326 14.7847C51.535 14.7847 51.2407 14.7224 50.9685 14.6019C50.6964 14.4813 50.4525 14.3052 50.2525 14.0848C50.0525 13.8644 49.9009 13.6045 49.8073 13.322C49.7137 13.0395 49.6802 12.7405 49.7091 12.4443ZM53.0421 12.4443C53.0421 11.4682 52.6036 10.8974 51.8341 10.8974C51.0616 10.8974 50.6271 11.4682 50.6271 12.4443C50.6271 13.4282 51.0617 13.9946 51.8341 13.9946C52.6036 13.9946 53.0421 13.4243 53.0421 12.4443H53.0421Z" fill="white"/>
<path d="M59.6017 14.6978H58.6798L57.7491 11.3813H57.6788L56.7521 14.6978H55.839L54.5978 10.1948H55.4991L56.3058 13.6308H56.3722L57.298 10.1948H58.1505L59.0763 13.6308H59.1466L59.9493 10.1948H60.838L59.6017 14.6978Z" fill="white"/>
<path d="M61.882 10.1949H62.7374V10.9102H62.8038C62.9165 10.6533 63.1065 10.4379 63.3474 10.2941C63.5882 10.1503 63.868 10.0852 64.1476 10.1079C64.3667 10.0915 64.5867 10.1245 64.7913 10.2046C64.9959 10.2847 65.1798 10.4098 65.3295 10.5707C65.4792 10.7315 65.5908 10.924 65.656 11.1338C65.7212 11.3436 65.7383 11.5654 65.7062 11.7827V14.6977H64.8175V12.0059C64.8175 11.2823 64.5031 10.9224 63.8458 10.9224C63.6971 10.9155 63.5486 10.9408 63.4105 10.9966C63.2725 11.0525 63.1481 11.1375 63.046 11.2459C62.9439 11.3543 62.8664 11.4834 62.8188 11.6246C62.7713 11.7657 62.7549 11.9154 62.7706 12.0635V14.6978H61.882L61.882 10.1949Z" fill="white"/>
<path d="M67.1222 8.43701H68.0109V14.6978H67.1222V8.43701Z" fill="white"/>
<path d="M69.2462 12.4444C69.2179 12.1484 69.2518 11.8499 69.3457 11.5678C69.4395 11.2857 69.5913 11.0263 69.7913 10.8064C69.9912 10.5864 70.235 10.4106 70.5068 10.2903C70.7787 10.17 71.0727 10.1079 71.37 10.1079C71.6673 10.1079 71.9613 10.17 72.2332 10.2903C72.505 10.4106 72.7488 10.5864 72.9487 10.8064C73.1487 11.0263 73.3005 11.2857 73.3943 11.5678C73.4882 11.8499 73.5221 12.1484 73.4938 12.4444C73.5226 12.7406 73.4891 13.0396 73.3955 13.3221C73.3019 13.6046 73.1502 13.8645 72.9502 14.0849C72.7502 14.3053 72.5062 14.4814 72.2341 14.6019C71.962 14.7225 71.6676 14.7847 71.37 14.7847C71.0724 14.7847 70.778 14.7225 70.5059 14.6019C70.2338 14.4814 69.9899 14.3053 69.7898 14.0849C69.5898 13.8645 69.4381 13.6046 69.3445 13.3221C69.2509 13.0396 69.2174 12.7406 69.2462 12.4444ZM72.5792 12.4444C72.5792 11.4683 72.1407 10.8975 71.3712 10.8975C70.5988 10.8975 70.1642 11.4683 70.1642 12.4444C70.1642 13.4283 70.5988 13.9947 71.3712 13.9947C72.1408 13.9947 72.5792 13.4244 72.5792 12.4444H72.5792Z" fill="white"/>
<path d="M74.4293 13.4243C74.4293 12.6138 75.0328 12.1465 76.1041 12.0801L77.3239 12.0098V11.6211C77.3239 11.1455 77.0094 10.877 76.402 10.877C75.9059 10.877 75.5621 11.0591 75.4635 11.3774H74.6031C74.694 10.604 75.4215 10.1079 76.443 10.1079C77.5719 10.1079 78.2086 10.6699 78.2086 11.6211V14.6978H77.3531V14.0649H77.2828C77.1401 14.2919 76.9397 14.477 76.7021 14.6012C76.4645 14.7254 76.1981 14.7843 75.9303 14.7719C75.7413 14.7916 75.5502 14.7714 75.3694 14.7127C75.1887 14.654 75.0222 14.5581 74.8808 14.4311C74.7394 14.3042 74.6262 14.149 74.5484 13.9756C74.4706 13.8021 74.4301 13.6144 74.4293 13.4243ZM77.3239 13.0395V12.6631L76.2242 12.7334C75.6041 12.7749 75.3229 12.9858 75.3229 13.3828C75.3229 13.7881 75.6744 14.0239 76.1579 14.0239C76.2995 14.0382 76.4426 14.0239 76.5786 13.9819C76.7146 13.9398 76.8408 13.8707 76.9495 13.7789C77.0583 13.6871 77.1475 13.5743 77.2118 13.4473C77.2761 13.3202 77.3142 13.1816 77.3239 13.0395Z" fill="white"/>
<path d="M79.3766 12.4444C79.3766 11.0215 80.108 10.1201 81.2457 10.1201C81.5271 10.1072 81.8064 10.1746 82.051 10.3145C82.2955 10.4544 82.4951 10.661 82.6266 10.9101H82.693V8.43701H83.5817V14.6978H82.7301V13.9863H82.6598C82.5182 14.2338 82.3116 14.4378 82.0623 14.5763C81.8131 14.7148 81.5307 14.7825 81.2457 14.772C80.1002 14.772 79.3766 13.8706 79.3766 12.4444ZM80.2946 12.4444C80.2946 13.3994 80.7448 13.9741 81.4977 13.9741C82.2467 13.9741 82.7096 13.3911 82.7096 12.4483C82.7096 11.5098 82.2419 10.9185 81.4977 10.9185C80.7496 10.9185 80.2946 11.4971 80.2946 12.4444H80.2946Z" fill="white"/>
<path d="M87.2584 12.4443C87.2301 12.1484 87.2639 11.8498 87.3578 11.5677C87.4516 11.2857 87.6034 11.0263 87.8033 10.8063C88.0033 10.5864 88.247 10.4106 88.5188 10.2903C88.7907 10.17 89.0847 10.1079 89.3819 10.1079C89.6792 10.1079 89.9732 10.17 90.245 10.2903C90.5169 10.4106 90.7606 10.5864 90.9605 10.8063C91.1605 11.0263 91.3122 11.2857 91.4061 11.5677C91.4999 11.8498 91.5338 12.1484 91.5055 12.4443C91.5343 12.7405 91.5009 13.0395 91.4073 13.322C91.3137 13.6045 91.162 13.8644 90.962 14.0848C90.762 14.3052 90.5181 14.4813 90.246 14.6019C89.9739 14.7224 89.6796 14.7847 89.3819 14.7847C89.0843 14.7847 88.79 14.7224 88.5179 14.6019C88.2457 14.4813 88.0018 14.3052 87.8018 14.0848C87.6018 13.8644 87.4502 13.6045 87.3566 13.322C87.263 13.0395 87.2296 12.7405 87.2584 12.4443ZM90.5914 12.4443C90.5914 11.4682 90.1529 10.8974 89.3834 10.8974C88.6109 10.8974 88.1764 11.4682 88.1764 12.4443C88.1764 13.4282 88.611 13.9946 89.3834 13.9946C90.1529 13.9946 90.5914 13.4243 90.5914 12.4443Z" fill="white"/>
<path d="M92.6979 10.1949H93.5533V10.9102H93.6198C93.7324 10.6533 93.9224 10.4379 94.1633 10.2941C94.4042 10.1503 94.6839 10.0852 94.9635 10.1079C95.1826 10.0915 95.4026 10.1245 95.6072 10.2046C95.8118 10.2847 95.9958 10.4098 96.1454 10.5707C96.2951 10.7315 96.4067 10.924 96.4719 11.1338C96.5371 11.3436 96.5543 11.5654 96.5221 11.7827V14.6977H95.6334V12.0059C95.6334 11.2823 95.319 10.9224 94.6618 10.9224C94.513 10.9155 94.3645 10.9408 94.2264 10.9966C94.0884 11.0525 93.964 11.1375 93.8619 11.2459C93.7598 11.3543 93.6823 11.4834 93.6348 11.6246C93.5872 11.7657 93.5708 11.9154 93.5865 12.0635V14.6978H92.6979V10.1949Z" fill="white"/>
<path d="M101.544 9.07373V10.2153H102.519V10.9639H101.544V13.2793C101.544 13.751 101.738 13.9575 102.18 13.9575C102.294 13.9572 102.407 13.9503 102.519 13.937V14.6772C102.36 14.7058 102.198 14.721 102.036 14.7226C101.047 14.7226 100.654 14.375 100.654 13.5068V10.9638H99.9391V10.2153H100.654V9.07373H101.544Z" fill="white"/>
<path d="M103.733 8.43701H104.614V10.9185H104.684C104.802 10.6591 104.998 10.4425 105.243 10.2982C105.489 10.1539 105.773 10.0888 106.057 10.1118C106.275 10.1 106.493 10.1364 106.695 10.2184C106.898 10.3004 107.079 10.4261 107.227 10.5864C107.376 10.7468 107.486 10.9378 107.552 11.146C107.618 11.3541 107.637 11.5742 107.608 11.7905V14.6978H106.718V12.0098C106.718 11.2905 106.383 10.9263 105.756 10.9263C105.603 10.9137 105.449 10.9347 105.305 10.9878C105.162 11.0408 105.031 11.1247 104.923 11.2334C104.815 11.3421 104.732 11.4732 104.68 11.6173C104.628 11.7614 104.608 11.9152 104.622 12.0679V14.6977H103.733L103.733 8.43701Z" fill="white"/>
<path d="M112.79 13.482C112.669 13.8935 112.407 14.2495 112.051 14.4877C111.694 14.7258 111.265 14.831 110.838 14.7847C110.542 14.7926 110.247 14.7357 109.974 14.6182C109.702 14.5007 109.458 14.3253 109.26 14.1041C109.063 13.883 108.915 13.6214 108.828 13.3376C108.742 13.0538 108.718 12.7545 108.758 12.4605C108.719 12.1656 108.743 11.8657 108.83 11.581C108.916 11.2964 109.063 11.0336 109.26 10.8105C109.457 10.5874 109.699 10.4093 109.971 10.2881C110.242 10.1669 110.537 10.1054 110.835 10.108C112.087 10.108 112.843 10.964 112.843 12.378V12.6881H109.664V12.7379C109.65 12.9031 109.671 13.0695 109.725 13.2262C109.779 13.383 109.865 13.5267 109.978 13.6481C110.091 13.7696 110.228 13.8661 110.38 13.9315C110.533 13.9969 110.697 14.0297 110.863 14.0279C111.075 14.0534 111.291 14.0151 111.482 13.9179C111.672 13.8207 111.83 13.669 111.934 13.482L112.79 13.482ZM109.664 12.0308H111.938C111.949 11.8797 111.929 11.7279 111.878 11.5852C111.827 11.4425 111.747 11.312 111.642 11.2021C111.538 11.0923 111.412 11.0055 111.272 10.9473C111.132 10.8891 110.981 10.8609 110.83 10.8643C110.676 10.8624 110.523 10.8913 110.381 10.9492C110.239 11.0072 110.109 11.093 110.001 11.2017C109.892 11.3104 109.806 11.4398 109.748 11.5822C109.69 11.7246 109.662 11.8771 109.664 12.0308H109.664Z" fill="white"/>
</svg>
