<svg width="135" height="40" viewBox="0 0 135 40" fill="none" xmlns="http://www.w3.org/2000/svg">
<path d="M130 0H5C2.23858 0 0 2.23858 0 5V35C0 37.7614 2.23858 40 5 40H130C132.761 40 135 37.7614 135 35V5C135 2.23858 132.761 0 130 0Z" fill="black"/>
<path d="M130 0.7998C131.114 0.801086 132.181 1.24403 132.968 2.03145C133.756 2.81887 134.199 3.88646 134.2 5V35C134.199 36.1135 133.756 37.1811 132.968 37.9685C132.181 38.7559 131.114 39.1989 130 39.2002H5C3.88645 39.1989 2.81888 38.756 2.0315 37.9686C1.24412 37.1811 0.801231 36.1135 0.8 35V5C0.801212 3.88644 1.24409 2.81884 2.03148 2.03142C2.81886 1.244 3.88644 0.801065 5 0.7998H130ZM130 0H5C3.67511 0.0038781 2.40559 0.531908 1.46875 1.46875C0.531908 2.40559 0.0038781 3.67511 0 5L0 35C0.0038781 36.3249 0.531908 37.5944 1.46875 38.5312C2.40559 39.4681 3.67511 39.9961 5 40H130C131.325 39.9961 132.594 39.4681 133.531 38.5312C134.468 37.5944 134.996 36.3249 135 35V5C134.996 3.67511 134.468 2.40559 133.531 1.46875C132.594 0.531908 131.325 0.0038781 130 0Z" fill="#A6A6A6"/>
<path d="M47.4184 10.2433C47.4366 10.6103 47.3799 10.9771 47.2518 11.3214C47.1237 11.6658 46.9268 11.9804 46.6732 12.2462C46.389 12.541 46.0457 12.7724 45.6659 12.9254C45.2861 13.0784 44.8783 13.1494 44.4691 13.1339C44.0573 13.1376 43.649 13.059 43.268 12.9026C42.8871 12.7462 42.5412 12.5152 42.2508 12.2233C41.9604 11.9313 41.7313 11.5842 41.5769 11.2024C41.4226 10.8207 41.3461 10.4119 41.352 10.0001C41.3462 9.58837 41.4227 9.17959 41.577 8.79781C41.7314 8.41603 41.9605 8.06895 42.2509 7.77695C42.5413 7.48496 42.8871 7.25395 43.268 7.09748C43.649 6.94102 44.0573 6.86226 44.4691 6.86584C44.8925 6.86456 45.3116 6.95016 45.7006 7.11734C46.0619 7.26378 46.3834 7.49348 46.6391 7.78774L46.1117 8.31554C45.9107 8.07899 45.6581 7.89178 45.3733 7.76834C45.0885 7.64491 44.7791 7.58856 44.4691 7.60364C44.157 7.60202 43.8478 7.66341 43.56 7.78412C43.2722 7.90483 43.0118 8.08239 42.7942 8.30615C42.5767 8.52991 42.4065 8.79527 42.2939 9.08635C42.1814 9.37743 42.1287 9.68823 42.1391 10.0001C42.1317 10.4673 42.2631 10.9262 42.5168 11.3186C42.7705 11.711 43.135 12.0192 43.5641 12.2041C43.9932 12.3891 44.4676 12.4425 44.927 12.3575C45.3865 12.2725 45.8104 12.0529 46.1449 11.7267C46.4528 11.395 46.6313 10.9637 46.6478 10.5113H44.4691V9.79064H47.3764C47.4039 9.93998 47.4179 10.0915 47.4184 10.2433Z" fill="white" stroke="white" stroke-width="0.2" stroke-miterlimit="10"/>
<path d="M52.0277 7.7373H49.2953V9.6396H51.7592V10.3604H49.2953V12.2627H52.0277V13H48.5248V7H52.0277V7.7373Z" fill="white" stroke="white" stroke-width="0.2" stroke-miterlimit="10"/>
<path d="M55.2787 13H54.5072V7.7373H52.8314V7H56.9545V7.7373H55.2787V13Z" fill="white" stroke="white" stroke-width="0.2" stroke-miterlimit="10"/>
<path d="M59.9379 13V7H60.7084V13H59.9379Z" fill="white" stroke="white" stroke-width="0.2" stroke-miterlimit="10"/>
<path d="M64.1283 13H63.3568V7.7373H61.6811V7H65.8041V7.7373H64.1283V13Z" fill="white" stroke="white" stroke-width="0.2" stroke-miterlimit="10"/>
<path d="M73.6093 12.2246C73.0253 12.8069 72.2343 13.1338 71.4096 13.1338C70.5849 13.1338 69.7939 12.8069 69.2099 12.2246C68.921 11.932 68.6939 11.5843 68.542 11.2021C68.3902 10.8199 68.3168 10.4111 68.3261 10C68.3168 9.58891 68.3902 9.18011 68.542 8.79795C68.6939 8.41578 68.921 8.06805 69.2099 7.77542C69.4986 7.48669 69.8413 7.25772 70.2186 7.10162C70.5958 6.94552 71.0002 6.86536 71.4085 6.86572C71.8167 6.86609 72.2209 6.94697 72.5979 7.10373C72.9749 7.2605 73.3173 7.49008 73.6054 7.77932C73.8945 8.07118 74.1221 8.41814 74.2746 8.79961C74.4271 9.18107 74.5014 9.58929 74.4931 10C74.5022 10.4111 74.4286 10.8198 74.2768 11.202C74.125 11.5841 73.898 11.9318 73.6093 12.2246ZM69.7792 11.7222C70.2117 12.154 70.7979 12.3965 71.4091 12.3965C72.0203 12.3965 72.6065 12.154 73.039 11.7222C73.2608 11.4951 73.4343 11.2255 73.5489 10.9294C73.6635 10.6334 73.717 10.3173 73.706 10C73.717 9.68278 73.6635 9.36661 73.5489 9.0706C73.4343 8.7746 73.2608 8.5049 73.039 8.27782C72.6065 7.84603 72.0203 7.60351 71.4091 7.60351C70.7979 7.60351 70.2117 7.84603 69.7792 8.27782C69.5577 8.50508 69.3845 8.77483 69.2701 9.07081C69.1556 9.36679 69.1022 9.68287 69.1132 10C69.1022 10.3172 69.1556 10.6333 69.2701 10.9292C69.3845 11.2252 69.5577 11.495 69.7792 11.7222Z" fill="white" stroke="white" stroke-width="0.2" stroke-miterlimit="10"/>
<path d="M75.5751 13V7H76.5136L79.4296 11.6675H79.4628L79.4296 10.5112V7H80.2011V13H79.3964L76.3456 8.1064H76.3124L76.3456 9.2627V13H75.5751Z" fill="white" stroke="white" stroke-width="0.2" stroke-miterlimit="10"/>
<path d="M68.1358 21.7515C67.2953 21.7546 66.4746 22.0068 65.7773 22.4761C65.08 22.9454 64.5373 23.6107 64.2179 24.3882C63.8984 25.1656 63.8165 26.0203 63.9825 26.8443C64.1484 27.6682 64.5547 28.4246 65.1502 29.0178C65.7457 29.611 66.5035 30.0144 67.3281 30.1772C68.1527 30.34 69.0071 30.2549 69.7833 29.9325C70.5595 29.6101 71.2228 29.0649 71.6895 28.3658C72.1561 27.6667 72.4051 26.8451 72.4051 26.0046C72.4134 25.4424 72.3085 24.8843 72.0966 24.3635C71.8848 23.8427 71.5704 23.3698 71.1721 22.973C70.7737 22.5762 70.2997 22.2636 69.7781 22.0537C69.2564 21.8438 68.698 21.7411 68.1358 21.7515ZM68.1358 28.5823C67.6182 28.6192 67.1014 28.4994 66.6528 28.2385C66.2043 27.9776 65.8446 27.5877 65.6207 27.1195C65.3968 26.6514 65.3191 26.1267 65.3976 25.6137C65.4761 25.1007 65.7072 24.6233 66.0608 24.2435C66.4145 23.8637 66.8743 23.5992 67.3804 23.4844C67.8865 23.3697 68.4154 23.4099 68.8983 23.5999C69.3812 23.7899 69.7957 24.1209 70.0878 24.5498C70.3799 24.9787 70.5362 25.4856 70.5362 26.0046C70.5519 26.3324 70.5019 26.6601 70.389 26.9683C70.2762 27.2765 70.1028 27.559 69.8792 27.7992C69.6555 28.0394 69.386 28.2324 69.0866 28.3669C68.7872 28.5014 68.4639 28.5746 68.1358 28.5823ZM58.8224 21.7515C57.9819 21.7546 57.1612 22.0068 56.4638 22.476C55.7665 22.9453 55.2239 23.6107 54.9044 24.3881C54.585 25.1656 54.503 26.0202 54.6689 26.8442C54.8349 27.6682 55.2412 28.4245 55.8367 29.0177C56.4321 29.611 57.19 30.0144 58.0146 30.1772C58.8392 30.34 59.6936 30.2549 60.4698 29.9325C61.246 29.6101 61.9093 29.0649 62.376 28.3659C62.8426 27.6668 63.0916 26.8451 63.0916 26.0046C63.0999 25.4424 62.995 24.8843 62.7831 24.3635C62.5713 23.8427 62.2569 23.3698 61.8586 22.973C61.4603 22.5762 60.9862 22.2636 60.4646 22.0537C59.943 21.8439 59.3845 21.7411 58.8224 21.7515ZM58.8224 28.5823C58.3048 28.6192 57.788 28.4994 57.3394 28.2385C56.8909 27.9776 56.5312 27.5877 56.3073 27.1195C56.0834 26.6514 56.0057 26.1267 56.0842 25.6137C56.1627 25.1007 56.3938 24.6233 56.7474 24.2435C57.1011 23.8637 57.5609 23.5992 58.067 23.4844C58.573 23.3697 59.102 23.4099 59.5849 23.5999C60.0678 23.7899 60.4823 24.1209 60.7744 24.5498C61.0665 24.9787 61.2228 25.4856 61.2228 26.0046C61.2385 26.3324 61.1885 26.6601 61.0757 26.9683C60.9628 27.2765 60.7895 27.559 60.5658 27.7992C60.3421 28.0394 60.0726 28.2324 59.7732 28.3669C59.4738 28.5014 59.1505 28.5746 58.8224 28.5823ZM47.7436 23.0565V24.8608H52.0613C51.999 25.7071 51.6527 26.5075 51.0785 27.1324C50.6458 27.5734 50.1255 27.9188 49.5511 28.1464C48.9767 28.3739 48.3609 28.4785 47.7436 28.4534C46.4816 28.4363 45.277 27.9229 44.3906 27.0245C43.5042 26.126 43.0073 24.9146 43.0073 23.6525C43.0073 22.3903 43.5042 21.1789 44.3906 20.2805C45.277 19.382 46.4816 18.8686 47.7436 18.8516C48.9558 18.8357 50.1253 19.2989 50.998 20.1404L52.2707 18.8677C51.6753 18.2782 50.9681 17.8135 50.1907 17.5009C49.4134 17.1883 48.5814 17.034 47.7436 17.0472C46.8681 17.0344 45.9988 17.1958 45.1862 17.5221C44.3737 17.8483 43.6341 18.3328 43.0104 18.9474C42.3868 19.5621 41.8916 20.2945 41.5535 21.1023C41.2155 21.91 41.0414 22.7769 41.0414 23.6525C41.0414 24.5281 41.2155 25.3949 41.5535 26.2027C41.8916 27.0104 42.3868 27.7429 43.0104 28.3575C43.6341 28.9721 44.3737 29.4566 45.1862 29.7828C45.9988 30.1091 46.8681 30.2705 47.7436 30.2578C48.5991 30.2932 49.4523 30.1464 50.2467 29.827C51.0411 29.5076 51.7584 29.0229 52.3512 28.4051C53.4036 27.2563 53.9646 25.7413 53.914 24.1842C53.9181 23.806 53.8857 23.4284 53.8172 23.0565H47.7436ZM93.0519 24.458C92.7963 23.6876 92.3097 23.0146 91.6583 22.5304C91.0069 22.0461 90.2223 21.7742 89.4109 21.7515C88.8644 21.7549 88.3243 21.869 87.8232 22.0871C87.3222 22.3051 86.8705 22.6225 86.4955 23.02C86.1206 23.4176 85.8301 23.887 85.6417 24.4C85.4534 24.913 85.371 25.4588 85.3995 26.0046C85.3872 26.5637 85.4877 27.1197 85.6951 27.6391C85.9024 28.1586 86.2123 28.6309 86.6063 29.0279C87.0003 29.4249 87.4703 29.7384 87.9881 29.9498C88.506 30.1611 89.0611 30.2658 89.6204 30.2578C90.3211 30.2616 91.0117 30.0914 91.6303 29.7624C92.2489 29.4335 92.7761 28.956 93.1646 28.3729L91.7147 27.4063C91.4975 27.767 91.1902 28.0651 90.8231 28.2712C90.4559 28.4774 90.0415 28.5846 89.6204 28.5823C89.1871 28.5988 88.7588 28.4848 88.3911 28.255C88.0234 28.0252 87.7332 27.6902 87.5582 27.2935L93.2453 24.9414L93.0519 24.458ZM87.2522 25.8758C87.2322 25.5662 87.2741 25.2558 87.3755 24.9626C87.4769 24.6694 87.6357 24.3994 87.8428 24.1684C88.0498 23.9374 88.3008 23.75 88.5811 23.6171C88.8614 23.4843 89.1654 23.4087 89.4753 23.3948C89.798 23.3735 90.1198 23.4478 90.4006 23.6082C90.6813 23.7686 90.9087 24.0082 91.0542 24.297L87.2522 25.8758ZM82.6284 30H84.4972V17.4984H82.6284V30ZM79.5674 22.702H79.503C79.2189 22.3933 78.8721 22.1488 78.486 21.9849C78.0998 21.821 77.683 21.7414 77.2636 21.7515C76.1669 21.7981 75.1306 22.2666 74.3711 23.0591C73.6116 23.8517 73.1876 24.9069 73.1876 26.0046C73.1876 27.1023 73.6116 28.1576 74.3711 28.9501C75.1306 29.7426 76.1669 30.2111 77.2636 30.2578C77.6847 30.269 78.1031 30.1883 78.4899 30.0214C78.8766 29.8544 79.2223 29.6053 79.503 29.2912H79.5674V29.9034C79.5674 31.5306 78.6975 32.4005 77.2958 32.4005C76.8287 32.3893 76.3754 32.2393 75.9939 31.9696C75.6123 31.6999 75.3196 31.3227 75.1532 30.8861L73.526 31.5628C73.8327 32.3094 74.3553 32.9475 75.027 33.3953C75.6986 33.843 76.4886 34.0801 77.2958 34.076C79.4869 34.076 81.3396 32.7872 81.3396 29.6456V22.0092H79.5674V22.702ZM77.4248 28.5823C76.7789 28.5275 76.177 28.2322 75.7384 27.7548C75.2999 27.2775 75.0565 26.6529 75.0565 26.0046C75.0565 25.3564 75.2999 24.7317 75.7384 24.2544C76.177 23.777 76.7789 23.4817 77.4248 23.427C77.7462 23.4427 78.0611 23.5229 78.3508 23.6629C78.6404 23.8029 78.899 23.9997 79.111 24.2418C79.3229 24.4838 79.484 24.7661 79.5846 25.0717C79.6851 25.3773 79.7231 25.7 79.6963 26.0207C79.7214 26.3393 79.682 26.6597 79.5805 26.9628C79.4789 27.2658 79.3173 27.5453 79.1052 27.7844C78.8931 28.0236 78.635 28.2175 78.3463 28.3546C78.0576 28.4917 77.7442 28.5691 77.4248 28.5823ZM101.806 17.4986H97.3346V30H99.2003V25.2636H101.806C102.334 25.2925 102.862 25.2135 103.358 25.0315C103.854 24.8494 104.308 24.5681 104.692 24.2048C105.076 23.8414 105.381 23.4036 105.59 22.9181C105.799 22.4326 105.907 21.9096 105.907 21.3811C105.907 20.8525 105.799 20.3295 105.59 19.844C105.381 19.3585 105.076 18.9207 104.692 18.5573C104.308 18.194 103.854 17.9127 103.358 17.7306C102.862 17.5486 102.334 17.4696 101.806 17.4986ZM101.854 23.5238H99.2003V19.2385H101.854C102.139 19.2326 102.423 19.2836 102.688 19.3886C102.953 19.4937 103.194 19.6505 103.398 19.8501C103.602 20.0496 103.764 20.2878 103.874 20.5507C103.985 20.8136 104.042 21.0959 104.042 21.3811C104.042 21.6663 103.985 21.9486 103.874 22.2115C103.764 22.4744 103.602 22.7126 103.398 22.9121C103.194 23.1117 102.953 23.2686 102.688 23.3736C102.423 23.4786 102.139 23.5297 101.854 23.5238ZM113.386 21.7285C112.705 21.6887 112.027 21.8486 111.435 22.1886C110.844 22.5286 110.365 23.0338 110.056 23.6424L111.713 24.334C111.877 24.0319 112.126 23.7844 112.429 23.6215C112.732 23.4587 113.075 23.3877 113.418 23.4172C113.891 23.371 114.363 23.5143 114.731 23.8158C115.099 24.1173 115.332 24.5523 115.38 25.0255V25.1542C114.781 24.8358 114.112 24.6701 113.434 24.6717C111.649 24.6717 109.831 25.6528 109.831 27.4863C109.849 27.8727 109.943 28.2517 110.11 28.6007C110.277 28.9498 110.512 29.2619 110.801 29.5184C111.091 29.7749 111.429 29.9706 111.795 30.094C112.162 30.2173 112.55 30.2658 112.935 30.2365C113.405 30.2641 113.874 30.1653 114.292 29.9503C114.711 29.7354 115.064 29.4121 115.316 29.0142H115.38V29.9792H117.181V25.1864C117.181 22.9669 115.525 21.7285 113.386 21.7285ZM113.161 28.5799C112.549 28.5799 111.697 28.2744 111.697 27.5184C111.697 26.5535 112.758 26.1835 113.675 26.1835C114.271 26.1676 114.859 26.312 115.38 26.6017C115.311 27.1439 115.049 27.643 114.641 28.0066C114.233 28.3703 113.707 28.5739 113.161 28.5799ZM123.743 22.0019L121.604 27.4219H121.54L119.32 22.0019H117.31L120.639 29.5771L118.741 33.7909H120.687L125.818 22.0019H123.743ZM106.936 30H108.802V17.4986H106.936V30Z" fill="white"/>
<path d="M10.4353 7.53793C10.1074 7.93 9.94182 8.43263 9.97251 8.94283V31.0589C9.94173 31.5691 10.1073 32.0718 10.4353 32.4638L10.5093 32.5359L22.8983 20.147V19.8547L10.5093 7.46533L10.4353 7.53793Z" fill="url(#paint0_linear)"/>
<path d="M27.0277 24.2787L22.8983 20.1473V19.855L27.0287 15.7246L27.1218 15.7777L32.0146 18.5578C33.4122 19.3518 33.4122 20.651 32.0146 21.4455L27.1218 24.2256L27.0277 24.2787Z" fill="url(#paint1_linear)"/>
<path d="M27.1218 24.2249L22.8983 20.001L10.4353 32.4639C10.7201 32.715 11.0837 32.8587 11.4633 32.8699C11.8428 32.8811 12.2143 32.7592 12.5134 32.5253L27.1218 24.2249Z" fill="url(#paint2_linear)"/>
<path d="M27.1218 15.7771L12.5134 7.47666C12.2143 7.24275 11.8428 7.12084 11.4633 7.13206C11.0837 7.14327 10.7201 7.2869 10.4353 7.53806L22.8983 20.0011L27.1218 15.7771Z" fill="url(#paint3_linear)"/>
<path opacity="0.2" d="M27.0287 24.1318L12.5134 32.3791C12.2258 32.5981 11.8748 32.7175 11.5134 32.7194C11.152 32.7214 10.7997 32.6057 10.5098 32.3898L10.4353 32.4643L10.5093 32.5364L10.5098 32.5359C10.7997 32.7519 11.1519 32.8677 11.5134 32.8657C11.8749 32.8638 12.2259 32.7443 12.5134 32.5252L27.1218 24.2248L27.0287 24.1318Z" fill="black"/>
<path opacity="0.12" d="M10.4353 32.3185C10.1074 31.9264 9.94186 31.4238 9.97251 30.9136V31.0597C9.94184 31.5699 10.1074 32.0725 10.4353 32.4646L10.5098 32.3901L10.4353 32.3185Z" fill="black"/>
<path opacity="0.12" d="M32.0146 21.2988L27.0287 24.132L27.1218 24.225L32.0146 21.4449C32.3024 21.32 32.5515 21.1202 32.7358 20.8663C32.9202 20.6125 33.0331 20.3138 33.0629 20.0015C33.001 20.2843 32.8741 20.5488 32.6921 20.774C32.5101 20.9992 32.2781 21.1789 32.0146 21.2988Z" fill="black"/>
<path opacity="0.25" d="M12.5134 7.62334L32.0146 18.7033C32.2783 18.8232 32.5103 19.0029 32.6923 19.2282C32.8743 19.4535 33.0012 19.7182 33.0629 20.0011C33.0334 19.6887 32.9205 19.3899 32.7361 19.1359C32.5517 18.8819 32.3026 18.6821 32.0146 18.5572L12.5134 7.47724C11.1158 6.68314 9.9725 7.34274 9.9725 8.94354V9.08964C9.9725 7.48894 11.1158 6.82934 12.5134 7.62334Z" fill="white"/>
<defs>
<linearGradient id="paint0_linear" x1="21.7996" y1="8.70964" x2="5.01724" y2="25.4921" gradientUnits="userSpaceOnUse">
<stop stop-color="#00A0FF"/>
<stop offset="0.00657" stop-color="#00A1FF"/>
<stop offset="0.2601" stop-color="#00BEFF"/>
<stop offset="0.5122" stop-color="#00D2FF"/>
<stop offset="0.7604" stop-color="#00DFFF"/>
<stop offset="1" stop-color="#00E3FF"/>
</linearGradient>
<linearGradient id="paint1_linear" x1="33.8343" y1="20.0017" x2="9.6374" y2="20.0017" gradientUnits="userSpaceOnUse">
<stop stop-color="#FFE000"/>
<stop offset="0.4087" stop-color="#FFBD00"/>
<stop offset="0.7754" stop-color="#FFA500"/>
<stop offset="1" stop-color="#FF9C00"/>
</linearGradient>
<linearGradient id="paint2_linear" x1="24.8269" y1="22.2961" x2="2.06857" y2="45.0544" gradientUnits="userSpaceOnUse">
<stop stop-color="#FF3A44"/>
<stop offset="1" stop-color="#C31162"/>
</linearGradient>
<linearGradient id="paint3_linear" x1="7.29723" y1="0.176237" x2="17.4598" y2="10.3388" gradientUnits="userSpaceOnUse">
<stop stop-color="#32A071"/>
<stop offset="0.0685" stop-color="#2DA771"/>
<stop offset="0.4762" stop-color="#15CF74"/>
<stop offset="0.8009" stop-color="#06E775"/>
<stop offset="1" stop-color="#00F076"/>
</linearGradient>
</defs>
</svg>
